<svg width="658" height="531" viewBox="0 0 658 531" fill="none" xmlns="http://www.w3.org/2000/svg">
<path d="M175.629 292.669V234.301V175.932V117.564V59.1959V0.826538H117.261H58.8912V59.1959H117.261V117.564V175.932V234.301V292.669C117.261 308.788 104.194 321.853 88.0752 321.853C71.9578 321.853 58.8912 308.788 58.8912 292.669V234.301H0.523193V292.669C0.523193 341.023 39.7219 380.223 88.0752 380.223C136.43 380.223 175.629 341.023 175.629 292.669Z" fill="white"/>
<path d="M394.51 190.524C394.51 85.7578 309.58 0.827148 204.813 0.827148V59.1805C277.352 59.1805 336.157 117.986 336.157 190.524C336.157 263.063 277.352 321.868 204.813 321.868V321.854H201.134C195.226 344.81 182.492 365.011 165.249 380.222H204.813C309.58 380.222 394.51 295.291 394.51 190.524Z" fill="white"/>
<path d="M598.807 190.815V190.27C598.807 190.355 598.815 190.439 598.815 190.524C598.815 190.622 598.807 190.718 598.807 190.815ZM654.949 161.34H598.807H595.519H540.439H482.07V219.708H540.439H595.519C582.243 278.187 529.981 321.854 467.486 321.854C440.491 321.854 415.407 313.699 394.541 299.735C384.73 316.743 372.693 332.303 358.835 346.03C389.61 367.572 427.069 380.222 467.486 380.222C572.253 380.222 657.183 295.291 657.183 190.524C657.183 180.599 656.418 170.854 654.949 161.34Z" fill="white"/>
<path d="M467.486 59.1954C503.751 59.1954 536.562 73.9153 560.327 97.6833L601.61 56.4007C567.284 22.07 519.87 0.827354 467.486 0.827354C427.068 0.827354 389.611 13.4767 358.835 35.0194C372.692 48.7447 384.73 64.306 394.542 81.314C415.408 67.35 440.492 59.1954 467.486 59.1954Z" fill="white"/>
<path d="M21.0216 504.015C21.0216 507.276 20.8323 510.043 20.4536 512.316C20.0163 514.881 19.0989 516.995 17.7003 518.655C16.0683 520.579 14.0429 521.54 11.6243 521.54C9.55495 521.54 7.26961 520.768 4.76295 519.225L0.522949 526.217C3.87362 528.256 7.28295 529.275 10.7509 529.275C17.8603 529.275 22.9163 526.755 25.9163 521.715C28.2776 517.693 29.4576 511.792 29.4576 504.015V460.349H21.0216V504.015Z" fill="white"/>
<path d="M81.0315 487.448H48.8195V460.349H40.3835V527.833H48.8195V495.315H81.0315V527.833H89.3795V460.349H81.0315V487.448Z" fill="white"/>
<path d="M155.509 507.728C153.061 511.955 149.775 515.281 145.654 517.715C141.53 520.147 137.049 521.365 132.213 521.365C127.405 521.365 122.903 520.125 118.707 517.651C114.511 515.173 111.226 511.857 108.853 507.707C106.477 503.553 105.289 499.017 105.289 494.091C105.289 489.079 106.506 484.455 108.939 480.213C111.371 475.976 114.642 472.644 118.751 470.227C122.859 467.809 127.346 466.601 132.213 466.601C137.109 466.601 141.646 467.847 145.829 470.336C150.009 472.828 153.279 476.187 155.639 480.412C158.001 484.636 159.181 489.196 159.181 494.091C159.181 498.956 157.957 503.501 155.509 507.728ZM132.213 458.908C125.861 458.908 119.99 460.483 114.599 463.629C109.121 466.833 104.809 471.132 101.662 476.521C98.514 481.911 96.9407 487.767 96.9407 494.091C96.9407 500.355 98.5433 506.227 101.749 511.707C104.954 517.184 109.251 521.483 114.642 524.599C120.034 527.716 125.89 529.275 132.213 529.275C138.594 529.275 144.523 527.68 150.002 524.491C155.481 521.299 159.777 517.015 162.895 511.64C166.014 506.263 167.571 500.415 167.571 494.091C167.571 484.271 164.134 475.951 157.257 469.133C150.379 462.315 142.031 458.908 132.213 458.908Z" fill="white"/>
<path d="M188.884 503.225L200.771 475.897L212.816 503.225H188.884ZM168.534 527.833H177.715L185.41 510.917H216.247L224.002 527.833H233.088L200.79 457.377L168.534 527.833Z" fill="white"/>
<path d="M288.51 510.323L237.854 456.967V527.833H246.2V477.443L297.119 530.63V460.349H288.51V510.323Z" fill="white"/>
<path d="M373.478 501.434H391.136C391.136 504.756 389.897 508.15 387.422 511.617C385.177 514.764 382.301 517.205 378.789 518.938C375.278 520.672 371.57 521.54 367.666 521.54C363.878 521.54 360.032 520.346 356.128 517.956C351.96 515.39 348.653 511.93 346.205 507.574C343.757 503.218 342.534 498.594 342.534 493.7L342.358 493.176C342.358 488.105 343.716 483.5 346.422 479.364C348.93 475.517 352.134 472.454 356.038 470.182C360.089 467.794 364.33 466.601 368.758 466.601C377.762 466.601 385.048 470.273 390.612 477.616L396.773 471.888C392.694 467.285 388.448 463.97 384.034 461.944C379.618 459.918 374.353 458.909 368.233 458.909C365.174 458.909 361.837 459.505 358.226 460.7C349.569 463.553 342.986 469.121 338.47 477.396C335.498 482.814 334.009 488.25 334.009 493.7C334.009 501.566 336.605 509.024 341.792 516.078C344.414 519.632 347.764 522.604 351.842 524.994C356.71 527.849 361.473 529.274 366.136 529.274C366.253 529.274 366.456 529.305 366.748 529.365H368.67C377.762 529.365 385.325 526.173 391.353 519.792C397.297 513.528 400.269 505.82 400.269 496.672V493.7H373.478V501.434Z" fill="white"/>
<path d="M470.186 503.225L482.071 475.897L494.119 503.225H470.186ZM416.836 492.385V467.868H419.634C431.491 467.868 437.423 471.832 437.423 479.756C437.423 486.106 434.376 489.984 428.287 491.382C425.346 492.052 421.526 492.385 416.836 492.385ZM450.052 527.362L429.112 498.465C434.011 497.736 437.93 495.596 440.875 492.038C443.816 488.485 445.291 484.214 445.291 479.232C445.291 472.85 442.668 467.78 437.423 464.021C434.011 461.573 428.375 460.349 420.507 460.349H408.444V527.833H416.836V499.337H420.332L440.306 527.833H449.836H450.394H459.015L466.714 510.917H497.55L505.302 527.833H514.39L482.09 457.377L450.052 527.362Z" fill="white"/>
<path d="M535.762 462.839C530.722 465.434 526.468 468.931 522.999 473.329C518.454 479.129 516.18 485.742 516.18 493.175C516.18 498.215 517.131 502.95 519.023 507.378C522.9 516.439 529.266 522.835 538.124 526.567C542.406 528.373 546.879 529.274 551.542 529.274C557.718 529.274 563.59 527.689 569.154 524.511V514.589C563.59 519.225 557.588 521.539 551.147 521.539C544.008 521.539 537.796 518.851 532.507 513.477C527.219 508.099 524.572 501.331 524.572 493.175C524.572 486.007 527.219 479.755 532.507 474.423C537.796 469.091 544.008 466.426 551.147 466.426C557.938 466.426 563.939 468.654 569.154 473.111V463.279C564.027 460.365 558.215 458.909 551.716 458.909C546.239 458.909 540.922 460.217 535.762 462.839Z" fill="white"/>
<path d="M578.769 527.833H587.161V460.349H578.769V527.833Z" fill="white"/>
<path d="M612.979 503.225L624.864 475.897L636.912 503.225H612.979ZM592.629 527.833H601.808L609.507 510.917H640.343L648.095 527.833H657.184L624.883 457.377L592.629 527.833Z" fill="white"/>
</svg>
