<?xml version="1.0" encoding="UTF-8" standalone="no"?>
<svg
   xmlns:dc="http://purl.org/dc/elements/1.1/"
   xmlns:cc="http://creativecommons.org/ns#"
   xmlns:rdf="http://www.w3.org/1999/02/22-rdf-syntax-ns#"
   xmlns:svg="http://www.w3.org/2000/svg"
   xmlns="http://www.w3.org/2000/svg"
   xmlns:sodipodi="http://sodipodi.sourceforge.net/DTD/sodipodi-0.dtd"
   xmlns:inkscape="http://www.inkscape.org/namespaces/inkscape"
   version="1.1"
   id="svg2"
   xml:space="preserve"
   width="793.70667"
   height="683.448"
   viewBox="0 0 793.70667 683.448"
   sodipodi:docname="jhoan logo.ai"><metadata
     id="metadata8"><rdf:RDF><cc:Work
         rdf:about=""><dc:format>image/svg+xml</dc:format><dc:type
           rdf:resource="http://purl.org/dc/dcmitype/StillImage" /></cc:Work></rdf:RDF></metadata><defs
     id="defs6"><clipPath
       clipPathUnits="userSpaceOnUse"
       id="clipPath18"><path
         d="M 0,512.586 H 595.28 V 0 H 0 Z"
         id="path16" /></clipPath></defs><sodipodi:namedview
     pagecolor="#ffffff"
     bordercolor="#666666"
     borderopacity="1"
     objecttolerance="10"
     gridtolerance="10"
     guidetolerance="10"
     inkscape:pageopacity="0"
     inkscape:pageshadow="2"
     inkscape:window-width="640"
     inkscape:window-height="480"
     id="namedview4" /><g
     id="g10"
     inkscape:groupmode="layer"
     inkscape:label="jhoan logo"
     transform="matrix(1.3333333,0,0,-1.3333333,0,683.448)"><g
       id="g12"><g
         id="g14"
         clip-path="url(#clipPath18)"><g
           id="g20"
           transform="translate(182.7214,242.8341)"><path
             d="m 0,0 v 43.776 43.777 43.776 43.776 43.777 h -43.776 -43.777 v -43.777 h 43.777 V 131.329 87.553 43.776 0 c 0,-12.089 -9.8,-21.888 -21.889,-21.888 -12.088,0 -21.888,9.799 -21.888,21.888 v 43.776 h -43.776 V 0 c 0,-36.265 29.399,-65.665 65.664,-65.665 C -29.399,-65.665 0,-36.265 0,0"
             style="fill:#1d1d1b;fill-opacity:1;fill-rule:nonzero;stroke:none"
             id="path22" /></g><g
           id="g24"
           transform="translate(346.8828,319.4427)"><path
             d="M 0,0 C 0,78.575 -63.698,142.273 -142.273,142.273 V 98.508 c 54.404,0 98.508,-44.104 98.508,-98.508 0,-54.404 -44.104,-98.508 -98.508,-98.508 v 0.011 h -2.759 c -4.431,-17.217 -13.982,-32.368 -26.914,-43.776 h 29.673 C -63.698,-142.273 0,-78.575 0,0"
             style="fill:#1d1d1b;fill-opacity:1;fill-rule:nonzero;stroke:none"
             id="path26" /></g><g
           id="g28"
           transform="translate(500.1057,319.2248)"><path
             d="M 0,0 V 0.409 C 0,0.345 0.006,0.282 0.006,0.218 0.006,0.145 0,0.073 0,0 M 42.106,22.106 H 0 -2.466 -43.776 -87.553 V -21.67 h 43.777 41.31 c -9.957,-43.859 -49.154,-76.609 -96.025,-76.609 -20.246,0 -39.059,6.116 -54.709,16.589 -7.358,-12.756 -16.386,-24.426 -26.779,-34.721 23.081,-16.157 51.175,-25.644 81.488,-25.644 78.575,0 142.273,63.698 142.273,142.273 0,7.444 -0.574,14.753 -1.676,21.888"
             style="fill:#1d1d1b;fill-opacity:1;fill-rule:nonzero;stroke:none"
             id="path30" /></g><g
           id="g32"
           transform="translate(401.6144,417.9395)"><path
             d="M 0,0 C 27.199,0 51.807,-11.04 69.631,-28.866 L 100.593,2.096 C 74.849,27.844 39.288,43.776 0,43.776 c -30.313,0 -58.406,-9.487 -81.488,-25.644 10.393,-10.294 19.421,-21.965 26.78,-34.721 C -39.058,-6.116 -20.245,0 0,0"
             style="fill:#1d1d1b;fill-opacity:1;fill-rule:nonzero;stroke:none"
             id="path34" /></g><g
           id="g36"
           transform="translate(66.7663,84.325)"><path
             d="m 0,0 c 0,-2.446 -0.142,-4.521 -0.426,-6.226 -0.328,-1.924 -1.016,-3.509 -2.065,-4.754 -1.224,-1.443 -2.743,-2.164 -4.557,-2.164 -1.552,0 -3.266,0.579 -5.146,1.736 l -3.18,-5.244 c 2.513,-1.529 5.07,-2.293 7.671,-2.293 5.332,0 9.124,1.89 11.374,5.67 C 5.442,-10.259 6.327,-5.833 6.327,0 V 32.749 H 0 Z"
             style="fill:#1d1d1b;fill-opacity:1;fill-rule:nonzero;stroke:none"
             id="path38" /></g><g
           id="g40"
           transform="translate(111.7738,96.75)"><path
             d="m 0,0 h -24.159 v 20.324 h -6.327 v -50.613 h 6.327 V -5.9 H 0 V -30.289 H 6.261 V 20.324 H 0 Z"
             style="fill:#1d1d1b;fill-opacity:1;fill-rule:nonzero;stroke:none"
             id="path42" /></g><g
           id="g44"
           transform="translate(167.6315,81.5399)"><path
             d="m 0,0 c -1.836,-3.17 -4.3,-5.665 -7.391,-7.49 -3.093,-1.824 -6.454,-2.738 -10.081,-2.738 -3.606,0 -6.982,0.93 -10.129,2.786 -3.147,1.858 -5.611,4.345 -7.391,7.458 -1.782,3.115 -2.673,6.517 -2.673,10.212 0,3.759 0.913,7.227 2.738,10.408 1.824,3.178 4.277,5.677 7.359,7.49 3.081,1.813 6.446,2.719 10.096,2.719 3.672,0 7.075,-0.934 10.212,-2.801 3.135,-1.869 5.588,-4.388 7.358,-7.557 C 1.869,17.319 2.754,13.899 2.754,10.228 2.754,6.579 1.836,3.17 0,0 m -17.472,36.615 c -4.764,0 -9.167,-1.181 -13.21,-3.541 -4.109,-2.403 -7.343,-5.627 -9.703,-9.669 -2.361,-4.042 -3.541,-8.434 -3.541,-13.177 0,-4.698 1.202,-9.102 3.606,-13.212 2.404,-4.108 5.627,-7.332 9.67,-9.669 4.044,-2.338 8.436,-3.507 13.178,-3.507 4.786,0 9.233,1.196 13.342,3.588 4.109,2.394 7.331,5.607 9.67,9.638 2.339,4.033 3.507,8.419 3.507,13.162 0,7.365 -2.578,13.605 -7.736,18.718 -5.158,5.114 -11.419,7.669 -18.783,7.669"
             style="fill:#1d1d1b;fill-opacity:1;fill-rule:nonzero;stroke:none"
             id="path46" /></g><g
           id="g48"
           transform="translate(192.6634,84.9174)"><path
             d="M 0,0 8.915,20.496 17.949,0 Z m -15.263,-18.456 h 6.886 l 5.771,12.687 h 23.128 l 5.816,-12.687 h 6.815 L 8.929,34.386 Z"
             style="fill:#1d1d1b;fill-opacity:1;fill-rule:nonzero;stroke:none"
             id="path50" /></g><g
           id="g52"
           transform="translate(267.3824,79.5934)"><path
             d="m 0,0 -37.992,40.017 v -53.149 h 6.26 V 24.66 L 6.457,-15.23 V 37.481 H 0 Z"
             style="fill:#1d1d1b;fill-opacity:1;fill-rule:nonzero;stroke:none"
             id="path54" /></g><g
           id="g56"
           transform="translate(331.1088,86.2603)"><path
             d="m 0,0 h 13.243 c 0,-2.491 -0.929,-5.037 -2.785,-7.637 -1.684,-2.36 -3.841,-4.191 -6.475,-5.491 -2.633,-1.3 -5.414,-1.951 -8.342,-1.951 -2.841,0 -5.726,0.895 -8.654,2.688 -3.126,1.924 -5.606,4.519 -7.442,7.786 -1.836,3.267 -2.753,6.735 -2.753,10.406 l -0.132,0.393 c 0,3.803 1.018,7.257 3.048,10.359 1.881,2.885 4.284,5.182 7.212,6.886 3.038,1.791 6.219,2.686 9.54,2.686 6.753,0 12.217,-2.754 16.39,-8.261 l 4.621,4.296 c -3.059,3.452 -6.244,5.938 -9.554,7.458 -3.312,1.519 -7.261,2.276 -11.851,2.276 -2.294,0 -4.797,-0.447 -7.505,-1.343 -6.493,-2.14 -11.43,-6.316 -14.817,-12.522 -2.229,-4.064 -3.346,-8.141 -3.346,-12.228 0,-5.9 1.947,-11.493 5.837,-16.784 1.967,-2.665 4.479,-4.894 7.538,-6.687 3.651,-2.141 7.223,-3.21 10.72,-3.21 0.088,0 0.24,-0.023 0.459,-0.068 h 1.442 c 6.819,0 12.491,2.394 17.012,7.18 4.458,4.698 6.687,10.479 6.687,17.34 V 5.801 L 0,5.801 Z"
             style="fill:#1d1d1b;fill-opacity:1;fill-rule:nonzero;stroke:none"
             id="path58" /></g><g
           id="g60"
           transform="translate(403.6394,84.9174)"><path
             d="M 0,0 8.914,20.496 17.95,0 Z m -40.012,8.13 v 18.388 h 2.098 c 8.893,0 13.342,-2.973 13.342,-8.916 0,-4.763 -2.285,-7.671 -6.852,-8.72 C -33.63,8.38 -36.495,8.13 -40.012,8.13 M -15.1,-18.103 -30.805,3.57 c 3.674,0.547 6.613,2.152 8.822,4.82 2.206,2.665 3.312,5.868 3.312,9.605 0,4.786 -1.967,8.589 -5.901,11.408 -2.559,1.836 -6.786,2.754 -12.687,2.754 h -9.047 v -50.613 h 6.294 V 2.916 h 2.622 l 14.98,-21.372 h 7.148 0.418 6.466 l 5.774,12.687 h 23.127 l 5.814,-12.687 h 6.816 L 8.928,34.386 Z"
             style="fill:#1d1d1b;fill-opacity:1;fill-rule:nonzero;stroke:none"
             id="path62" /></g><g
           id="g64"
           transform="translate(452.8213,115.2065)"><path
             d="m 0,0 c -3.78,-1.946 -6.97,-4.569 -9.572,-7.867 -3.409,-4.35 -5.114,-9.31 -5.114,-14.885 0,-3.78 0.713,-7.331 2.132,-10.652 2.908,-6.796 7.682,-11.593 14.326,-14.392 3.211,-1.354 6.566,-2.03 10.063,-2.03 4.632,0 9.036,1.189 13.209,3.572 v 7.442 c -4.173,-3.477 -8.674,-5.213 -13.505,-5.213 -5.354,0 -10.013,2.016 -13.98,6.047 -3.966,4.033 -5.951,9.109 -5.951,15.226 0,5.376 1.985,10.065 5.951,14.064 3.967,3.999 8.626,5.998 13.98,5.998 5.093,0 9.594,-1.671 13.505,-5.014 V -0.33 C 21.199,1.856 16.84,2.948 11.966,2.948 7.858,2.948 3.87,1.967 0,0"
             style="fill:#1d1d1b;fill-opacity:1;fill-rule:nonzero;stroke:none"
             id="path66" /></g><path
           d="m 485.077,66.461 h 6.294 v 50.613 h -6.294 z"
           style="fill:#1d1d1b;fill-opacity:1;fill-rule:nonzero;stroke:none"
           id="path68" /><g
           id="g70"
           transform="translate(510.7341,84.9174)"><path
             d="M 0,0 8.914,20.496 17.95,0 Z m -15.262,-18.456 h 6.884 l 5.774,12.687 h 23.127 l 5.814,-12.687 h 6.817 L 8.928,34.386 Z"
             style="fill:#1d1d1b;fill-opacity:1;fill-rule:nonzero;stroke:none"
             id="path72" /></g></g></g></g></svg>
